<?xml version="1.0" encoding="UTF-8" standalone="no"?>
<svg
   xmlns:dc="http://purl.org/dc/elements/1.1/"
   xmlns:cc="http://creativecommons.org/ns#"
   xmlns:rdf="http://www.w3.org/1999/02/22-rdf-syntax-ns#"
   xmlns:svg="http://www.w3.org/2000/svg"
   xmlns="http://www.w3.org/2000/svg"
   xmlns:sodipodi="http://sodipodi.sourceforge.net/DTD/sodipodi-0.dtd"
   xmlns:inkscape="http://www.inkscape.org/namespaces/inkscape"
   inkscape:export-ydpi="341.32999"
   inkscape:export-xdpi="341.32999"
   inkscape:export-filename="/Users/paul/dev/personal/projects/HACC2020/archive-site-frontend/src/favicon.png"
   inkscape:version="1.0 (4035a4f, 2020-05-01)"
   sodipodi:docname="favicon.svg"
   id="svg841"
   version="1.1"
   viewBox="0 0 36 36">
  <metadata
     id="metadata847">
    <rdf:RDF>
      <cc:Work
         rdf:about="">
        <dc:format>image/svg+xml</dc:format>
        <dc:type
           rdf:resource="http://purl.org/dc/dcmitype/StillImage" />
      </cc:Work>
    </rdf:RDF>
  </metadata>
  <defs
     id="defs845" />
  <sodipodi:namedview
     inkscape:current-layer="svg841"
     inkscape:window-maximized="0"
     inkscape:window-y="23"
     inkscape:window-x="0"
     inkscape:cy="14.849031"
     inkscape:cx="18.800374"
     inkscape:zoom="12.138666"
     showgrid="false"
     id="namedview843"
     inkscape:window-height="1003"
     inkscape:window-width="1412"
     inkscape:pageshadow="2"
     inkscape:pageopacity="0"
     guidetolerance="10"
     gridtolerance="10"
     objecttolerance="10"
     borderopacity="1"
     bordercolor="#666666"
     pagecolor="#ffffff" />
  <path
     id="path833"
     d="M5.123 5h6C12.227 5 13 4.896 13 6V4c0-1.104-.773-2-1.877-2h-8c-2 0-3.583 2.125-3 5 0 0 1.791 9.375 1.917 9.958C2.373 18.5 4.164 20 6.081 20h6.958c1.105 0-.039-1.896-.039-3v-2c0 1.104-.773 2-1.877 2h-4c-1.104 0-1.833-1.042-2-2S3.539 7.667 3.539 7.667C3.206 5.75 4.018 5 5.123 5zm25.812 0h-6C23.831 5 22 4.896 22 6V4c0-1.104 1.831-2 2.935-2h8c2 0 3.584 2.125 3 5 0 0-1.633 9.419-1.771 10-.354 1.5-2.042 3-4 3h-7.146C21.914 20 22 18.104 22 17v-2c0 1.104 1.831 2 2.935 2h4c1.104 0 1.834-1.042 2-2s1.584-7.333 1.584-7.333C32.851 5.75 32.04 5 30.935 5zM20.832 22c0-6.958-2.709 0-2.709 0s-3-6.958-3 0-3.291 10-3.291 10h12.292c-.001 0-3.292-3.042-3.292-10z"
     fill="#FFAC33" />
  <path
     id="path835"
     d="M29.123 6.577c0 6.775-6.77 18.192-11 18.192-4.231 0-11-11.417-11-18.192 0-5.195 1-6.319 3-6.319 1.374 0 6.025-.027 8-.027l7-.001c2.917-.001 4 .684 4 6.347z"
     fill="#FFCC4D" />
  <path
     id="path837"
     d="M27 33c0 1.104.227 2-.877 2h-16C9.018 35 9 34.104 9 33v-1c0-1.104 1.164-2 2.206-2h13.917c1.042 0 1.877.896 1.877 2v1z"
     fill="#C1694F" />
  <path
     id="path839"
     d="M29 34.625c0 .76.165 1.375-1.252 1.375H8.498C7.206 36 7 35.385 7 34.625v-.25C7 33.615 7.738 33 8.498 33h19.25c.759 0 1.252.615 1.252 1.375v.25z"
     fill="#C1694F" />
  <path
     id="path1910"
     d="m 13.47235,19.223227 c -0.65561,-0.08427 -0.657035,-0.08597 -0.610159,-0.727333 0.05337,-0.730214 0.204286,-1.868337 0.279129,-2.105024 0.07784,-0.246158 0.327119,-0.453082 0.868603,-0.721017 0.238645,-0.118085 0.433902,-0.247462 0.433902,-0.287504 0,-0.0431 -0.1032,-0.08027 -0.252956,-0.09111 l -0.252956,-0.0183 v -0.41663 -0.416633 l 0.714228,-0.01679 c 0.671018,-0.01578 0.718002,-0.02478 0.776591,-0.148798 0.0343,-0.0726 0.144863,-0.292706 0.245698,-0.48912 0.100833,-0.196412 0.292858,-0.584773 0.42672,-0.863024 0.133862,-0.278252 0.336936,-0.666614 0.451273,-0.863027 0.114337,-0.196413 0.226858,-0.39729 0.250045,-0.446393 0.02319,-0.0491 0.111305,-0.196854 0.195816,-0.328336 0.169441,-0.263615 0.167929,-0.261181 0.609599,-0.981083 0.546223,-0.8903189 0.879273,-1.3058329 2.28992,-2.8569149 0.895219,-0.9843401 1.592292,-1.6736656 2.19422,-2.1698314 0.229148,-0.1888855 0.745946,-0.6516602 1.148441,-1.0283873 0.402495,-0.3767276 0.745214,-0.6715531 0.761599,-0.6551678 0.01639,0.016387 -0.06619,0.2270152 -0.183501,0.4680661 -0.117313,0.2410497 -0.204858,0.4920325 -0.194546,0.5577384 0.01216,0.077478 0.139514,-0.1224303 0.362358,-0.5687878 0.323477,-0.6479322 0.367694,-0.7062785 0.754733,-0.995917 0.226118,-0.1692146 0.660002,-0.4379095 0.964187,-0.5970993 0.623812,-0.3264624 1.065195,-0.5824611 1.515453,-0.8789514 0.525916,-0.3463101 0.545684,-0.2558647 0.111824,0.5116234 -0.138791,0.2455158 -0.319059,0.5937024 -0.400598,0.7737478 -0.08154,0.1800447 -0.357651,0.7157164 -0.613586,1.1903807 -0.565963,1.0496475 -0.711748,1.321447 -1.037548,1.9343691 -0.258918,0.4870962 -0.428864,0.7109395 -0.616576,0.8121147 -0.05837,0.031458 -0.473511,0.185524 -0.922546,0.3423688 -0.449035,0.1568454 -0.928441,0.342533 -1.065345,0.412641 -0.441507,0.22609 -0.383348,0.346157 0.06496,0.134115 0.39981,-0.1891 1.751881,-0.629303 1.796339,-0.5848452 0.06397,0.063972 -0.484597,0.7722322 -1.947376,2.5142682 -0.219902,0.261884 -0.611508,0.7305969 -0.870234,1.0415839 -0.489111,0.587907 -0.777709,0.831376 -0.990902,0.83595 -0.06882,0.0015 -0.205468,0.03948 -0.303674,0.08445 l -0.178557,0.08176 0.282716,0.0048 c 0.155493,0.0027 0.282715,0.02732 0.282715,0.0548 0,0.04551 -0.314132,0.312537 -0.973259,0.827315 -0.568279,0.443825 -1.556319,0.939641 -2.644029,1.32682 -0.17269,0.06147 -0.480095,0.20002 -0.683122,0.307888 l -0.369142,0.196125 0.415287,0.02976 0.415286,0.02976 v 0.416632 0.416633 l -0.223196,0.01847 c -0.226822,0.01877 -0.293141,0.122097 -0.148798,0.231826 0.04092,0.03111 0.208317,0.105075 0.371994,0.164372 0.184821,0.06696 0.399092,0.21181 0.565431,0.382243 0.256183,0.262489 0.272378,0.300324 0.372241,0.869619 0.05742,0.327356 0.121722,0.93581 0.142885,1.352123 l 0.03848,0.756931 -0.155125,0.05898 c -0.440123,0.167334 -3.455415,0.245483 -4.464947,0.11572 z"
     style="fill:#d77f00;stroke-width:0;fill-opacity:0.56078434;stroke-miterlimit:4;stroke-dasharray:none" />
</svg>
